<svg width="209" height="241" viewBox="0 0 209 241" fill="none" xmlns="http://www.w3.org/2000/svg">
<path d="M55 155H115" stroke="#6B7B92" stroke-width="2" stroke-linecap="round"/>
<path d="M55 228H115" stroke="#6B7B92" stroke-width="2" stroke-linecap="round"/>
<path d="M55 47H115" stroke="#6B7B92" stroke-width="2" stroke-linecap="round"/>
<path d="M148 46H208" stroke="#6B7B92" stroke-width="2" stroke-linecap="round"/>
<path d="M148 143H208" stroke="#6B7B92" stroke-width="2" stroke-linecap="round"/>
<path d="M148 228H208" stroke="#6B7B92" stroke-width="2" stroke-linecap="round"/>
<path d="M1 237.5L1 217.5" stroke="white" stroke-width="2" stroke-linecap="round"/>
<path d="M19.92 233.456C19.504 234.32 18.92 235.008 18.168 235.52C17.432 236.032 16.552 236.288 15.528 236.288C14.504 236.288 13.624 236.08 12.888 235.664C12.168 235.248 11.616 234.656 11.232 233.888C10.544 232.496 10.2 230.608 10.2 228.224C10.2 225.92 10.584 224 11.352 222.464C11.768 221.648 12.352 221.016 13.104 220.568C13.872 220.12 14.768 219.896 15.792 219.896C16.832 219.896 17.704 220.096 18.408 220.496C19.128 220.88 19.68 221.44 20.064 222.176C20.784 223.552 21.144 225.36 21.144 227.6C21.144 229.84 20.736 231.792 19.92 233.456ZM13.728 234.248C14.224 234.616 14.832 234.8 15.552 234.8C16.272 234.8 16.888 234.576 17.4 234.128C17.928 233.664 18.32 233.056 18.576 232.304C19.056 230.896 19.296 229.328 19.296 227.6C19.296 225.888 19.104 224.48 18.72 223.376C18.256 222.048 17.288 221.384 15.816 221.384C15.08 221.384 14.448 221.592 13.92 222.008C13.392 222.408 13 222.96 12.744 223.664C12.28 224.944 12.048 226.464 12.048 228.224C12.048 231.408 12.608 233.416 13.728 234.248Z" fill="white"/>
<path d="M31 218L37 227.5L31 237" stroke="white" stroke-width="2" stroke-linecap="round"/>
<path d="M1 165.5L1 145.5" stroke="white" stroke-width="2" stroke-linecap="round"/>
<path d="M12.48 164V162.512H15.432L15.504 150.104L12.192 152.24L11.4 151.16L15.576 147.896L17.256 148.184V162.512H20.112V164H12.48Z" fill="white"/>
<path d="M31 146L37 155.5L31 165" stroke="white" stroke-width="2" stroke-linecap="round"/>
<path d="M1 56.5L1 36.5" stroke="white" stroke-width="2" stroke-linecap="round"/>
<path d="M10.56 55V54.352C11.456 53.456 12.4 52.44 13.392 51.304C14.384 50.152 15.008 49.4 15.264 49.048C15.536 48.68 15.88 48.184 16.296 47.56C16.712 46.936 17.016 46.408 17.208 45.976C17.736 44.824 18 43.824 18 42.976C18 42.128 17.696 41.496 17.088 41.08C16.496 40.648 15.68 40.432 14.64 40.432C13.616 40.432 12.616 40.592 11.64 40.912L11.28 39.592C12.48 39.128 13.768 38.896 15.144 38.896C16.52 38.896 17.648 39.256 18.528 39.976C19.408 40.68 19.848 41.728 19.848 43.12C19.848 45.76 17.736 49.232 13.512 53.536L20.184 53.464L20.28 55H10.56Z" fill="white"/>
<path d="M31 37L37 46.5L31 56" stroke="white" stroke-width="2" stroke-linecap="round"/>
<path d="M179.5 145C179.5 144.172 178.828 143.5 178 143.5C177.172 143.5 176.5 144.172 176.5 145L179.5 145ZM176.939 227.561C177.525 228.146 178.475 228.146 179.061 227.561L188.607 218.015C189.192 217.429 189.192 216.479 188.607 215.893C188.021 215.308 187.071 215.308 186.485 215.893L178 224.379L169.515 215.893C168.929 215.308 167.979 215.308 167.393 215.893C166.808 216.479 166.808 217.429 167.393 218.015L176.939 227.561ZM176.5 145L176.5 226.5L179.5 226.5L179.5 145L176.5 145Z" fill="white"/>
<path d="M84.9282 18.0905H82.9232H82.2814L82.4384 17.4682L86.3867 1.81967C86.1394 1.77394 85.8542 1.72669 85.5384 1.68388C84.612 1.5588 82.7029 1.31771 80.4953 1.73354L84.9282 18.0905ZM84.9282 18.0905L84.908 18.1665L84.8191 18.5H80.2373C80.3789 17.9339 80.5235 17.365 80.6716 16.7939L80.6717 16.7935C81.0212 15.442 81.3784 14.1127 81.7423 12.8047L82.095 11.5368L80.9894 12.2506C80.2466 12.7301 79.1271 13.314 77.6771 13.6021L77.6771 13.6021C76.272 13.8813 74.5135 14.2069 73.0793 13.1717C72.8814 13.0284 71.8311 12.235 71.5604 10.8515L84.9282 18.0905ZM75.1894 4.01902L75.1892 4.01912C74.5005 4.56623 73.0079 5.89173 72.0933 8.05205L75.1894 4.01902ZM75.1894 4.01902C77.2638 2.37013 79.3786 1.94407 80.4952 1.73355L75.1894 4.01902ZM81.161 11.4816L79.9817 12.3794C78.6394 13.4014 76.6661 13.7325 75.0735 13.0059L81.161 11.4816ZM81.161 11.4816H80.8617M81.161 11.4816H80.8617M80.8617 11.4816C81.237 10.9709 81.5069 10.3894 81.7765 9.73077L80.8617 11.4816ZM71.5604 10.8514C71.3624 9.838 71.6782 9.03322 72.0932 8.05218L71.5604 10.8514ZM75.0617 13.0005L75.073 13.0056L81.7765 9.73065C82.4198 8.15997 83.2217 5.74171 83.607 2.49781L83.6635 2.0227L83.1913 1.94539C82.6472 1.8563 81.8404 1.7762 80.8802 1.88839C78.0393 2.21887 76.2073 3.94679 75.6168 4.5589L75.6168 4.55895L75.9767 4.90602C75.6168 4.55895 75.6167 4.55906 75.6165 4.55919L75.6163 4.55947L75.6156 4.56015L75.6139 4.56199L75.6085 4.56758L75.591 4.58639C75.5762 4.6023 75.5556 4.62491 75.5297 4.65405C75.478 4.71233 75.4054 4.79684 75.3173 4.90621C75.1411 5.1248 74.9025 5.44359 74.6456 5.8517C74.1327 6.66648 73.5413 7.84654 73.2351 9.30281L73.2351 9.30285C73.0884 10.0006 73.0252 10.7087 73.3495 11.4275C73.7995 12.4266 74.7302 12.8498 75.0617 13.0005Z" fill="white" stroke="white" stroke-miterlimit="10"/>
<path d="M87.74 21V20.256H89.216L89.252 14.052L87.596 15.12L87.2 14.58L89.288 12.948L90.128 13.092V20.256H91.556V21H87.74Z" fill="white"/>
<path d="M180.928 17.0905H178.923H178.281L178.438 16.4682L182.387 0.819669C182.139 0.773942 181.854 0.726686 181.538 0.683883C180.612 0.558798 178.703 0.317711 176.495 0.733538L180.928 17.0905ZM180.928 17.0905L180.908 17.1665L180.819 17.5H176.237C176.379 16.9339 176.523 16.365 176.672 15.7939L176.672 15.7935C177.021 14.442 177.378 13.1127 177.742 11.8047L178.095 10.5368L176.989 11.2506C176.247 11.7301 175.127 12.314 173.677 12.6021L173.677 12.6021C172.272 12.8813 170.514 13.2069 169.079 12.1717C168.881 12.0284 167.831 11.235 167.56 9.85153L180.928 17.0905ZM171.189 3.01902L171.189 3.01912C170.5 3.56623 169.008 4.89173 168.093 7.05205L171.189 3.01902ZM171.189 3.01902C173.264 1.37013 175.379 0.944075 176.495 0.733553L171.189 3.01902ZM177.161 10.4816L175.982 11.3794C174.639 12.4014 172.666 12.7325 171.074 12.0059L177.161 10.4816ZM177.161 10.4816H176.862M177.161 10.4816H176.862M176.862 10.4816C177.237 9.97095 177.507 9.38939 177.776 8.73077L176.862 10.4816ZM167.56 9.85143C167.362 8.838 167.678 8.03322 168.093 7.05218L167.56 9.85143ZM171.062 12.0005L171.073 12.0056L177.777 8.73065C178.42 7.15997 179.222 4.74171 179.607 1.49781L179.663 1.0227L179.191 0.945393C178.647 0.856302 177.84 0.776199 176.88 0.88839C174.039 1.21887 172.207 2.94679 171.617 3.5589L171.617 3.55895L171.977 3.90602C171.617 3.55895 171.617 3.55906 171.617 3.55919L171.616 3.55947L171.616 3.56015L171.614 3.56199L171.609 3.56758L171.591 3.58639C171.576 3.6023 171.556 3.62491 171.53 3.65405C171.478 3.71233 171.405 3.79684 171.317 3.90621C171.141 4.1248 170.902 4.44359 170.646 4.8517C170.133 5.66648 169.541 6.84654 169.235 8.30281L169.235 8.30285C169.088 9.00063 169.025 9.70868 169.35 10.4275C169.8 11.4266 170.73 11.8498 171.062 12.0005Z" fill="white" stroke="white" stroke-miterlimit="10"/>
<path d="M183.101 19.704C183.661 20.168 184.269 20.4 184.925 20.4C186.221 20.4 186.869 19.78 186.869 18.54C186.869 17.988 186.709 17.568 186.389 17.28C186.077 16.992 185.669 16.848 185.165 16.848C184.669 16.848 184.089 16.892 183.425 16.98L183.689 13.092H187.373L187.265 13.836H184.469L184.313 16.176C184.721 16.128 185.097 16.104 185.441 16.104C186.177 16.104 186.753 16.324 187.169 16.764C187.585 17.196 187.793 17.8 187.793 18.576C187.793 19.344 187.549 19.964 187.061 20.436C186.573 20.908 185.941 21.144 185.165 21.144C184.189 21.144 183.437 20.868 182.909 20.316L183.101 19.704Z" fill="white"/>
<path d="M83.5 228C83.5 228.828 84.1716 229.5 85 229.5C85.8284 229.5 86.5 228.828 86.5 228L83.5 228ZM86.0607 49.9393C85.4749 49.3536 84.5251 49.3536 83.9393 49.9393L74.3934 59.4853C73.8076 60.0711 73.8076 61.0208 74.3934 61.6066C74.9792 62.1924 75.9289 62.1924 76.5147 61.6066L85 53.1213L93.4853 61.6066C94.0711 62.1924 95.0208 62.1924 95.6066 61.6066C96.1924 61.0208 96.1924 60.0711 95.6066 59.4853L86.0607 49.9393ZM86.5 228L86.5 51L83.5 51L83.5 228L86.5 228Z" fill="white"/>
<circle cx="85" cy="50" r="2.5" fill="white" stroke="black"/>
</svg>
